<?xml version="1.0" encoding="UTF-8" standalone="no"?><svg xmlns:svg="http://www.w3.org/2000/svg" xmlns="http://www.w3.org/2000/svg" xmlns:xlink="http://www.w3.org/1999/xlink" height="280" width="264"><metadata/><defs><path id="c" d="M12 160a120 120 0 10240 0h12V0H0v160h12z"/><path id="e" d="M124 145v18h4c40 0 72 32 72 72v9H0v-9c0-40 32-72 72-72h4v-18c-17-9-30-25-32-45-6-1-10-6-10-12V74c0-6 4-11 10-12v-6a56 56 0 11112 0v6c6 1 10 6 10 12v14c0 6-4 11-10 12-2 20-15 36-32 45z"/><circle r="120" cy="120" cx="120" id="a"/></defs><g fill-rule="evenodd" fill="none"><g transform="translate(12 40)"><mask fill="#fff" id="b"><use xlink:href="#a"/></mask><use xlink:href="#a" fill="#E6E6E6"/><g fill="#65C9FF" mask="url(#b)"><path d="M0 0h240v240H0z"/></g></g><mask fill="#fff" id="d"><use xlink:href="#c"/></mask><g mask="url(#d)"><g transform="translate(32 36)"><mask fill="#fff" id="f"><use xlink:href="#e"/></mask><use xlink:href="#e" fill="#D0C6AC"/><g fill="#EDB98A" mask="url(#f)"><path d="M-32 0h264v244H-32z"/></g><path mask="url(#f)" fill="#000" fill-opacity=".1" d="M156 79v23a56 56 0 11-112 0V79v15a56 56 0 10112 0V79z"/></g><g transform="translate(0 170)"><defs><path id="g" d="M171 30c35 5 61 35 61 71v9H32v-9c0-36 26-66 61-71 1 5 3 10 7 14l29 26h6l29-26a24 24 0 007-14z"/></defs><mask fill="#fff" id="h"><use xlink:href="#g"/></mask><use xlink:href="#g" fill="#E6E6E6"/><g fill="#3C4F5C" mask="url(#h)"><path d="M0 0h264v110H0z"/></g></g><g fill="#000"><path d="M118 149c0 8 6 14 14 14s14-6 14-14" fill-opacity=".7"/><path d="M120 130c0 4 5 8 12 8s12-4 12-8" fill-opacity=".2"/><g fill-opacity=".6" transform="translate(76 90)"><circle r="6" cy="22" cx="30"/><circle r="6" cy="22" cx="82"/></g><g fill-opacity=".6"><path d="M103 88c-6 0-16 5-15 10v1c3-3 22-6 29-5l1-1c-3-4-10-5-15-5M162 88c6 0 16 5 15 10v1c-3-3-22-6-29-5l-1-1c3-4 10-5 15-5"/></g></g><defs><path id="i" d="M0 0h264v280H0z"/><path id="m" d="M180 40l-9-8-2-1-2-2v-1c0-2 3-6 1-7l-4 1-6 2c1-2 3-6 0-5l-8 4c1-1 4-6 1-6l-5 2-9 3c-11 2-25 1-35 6-8 4-16 10-20 18-5 7-6 16-7 24l-1 19c0 2 1 12 4 9l1-9 3-12c2-6 5-14 10-18l10-10 3-1h39l10-1h7l4 5 8 7c6 4 9 10 11 17l3 21c0 1 1 3 3 1v-3l1-13c0-13-1-32-11-42z"/></defs><mask fill="#fff" id="j"><use xlink:href="#i"/></mask><g mask="url(#j)"><g transform="translate(-1)"><g transform="translate(49 72)"><defs><path id="k" d="M101 98c-2 2-5 3-8 3-1 0-3-5-9-5s-8 5-9 5c-3 0-6-1-8-3-5-4-9-10-7-17 2-3 4-7 7-8l13-1 4-1 4 1 13 1c3 1 5 5 7 8 2 7-2 13-7 17m39-72c-3 8-2 19-3 28 0 7-2 18-8 22-3 3-9 7-13 5-3 0-4-9-8-12s-9-5-15-5c-2 0-7 0-9 2-2-2-7-2-9-2-6 0-11 2-15 5s-5 12-8 12c-4 2-10-2-13-5-6-4-8-15-8-22-1-9 0-20-3-28-2 0-1 16-1 16v20c0 16 10 39 31 47 5 3 17 6 26 6s21-3 26-5c21-9 31-32 31-48V42s1-16-1-16"/></defs><mask fill="#fff" id="l"><use xlink:href="#k"/></mask><use xlink:href="#k" fill="#331B0C"/><g fill="#2C1B18" mask="url(#l)"><path d="M-32 0h264v244H-32z"/></g></g><mask fill="#fff" id="n"><use xlink:href="#m"/></mask><use xlink:href="#m" fill="#1F3140"/><g fill="#2C1B18" mask="url(#n)"><path d="M0 0h264v280H0z"/></g><g transform="translate(62 85)"><defs><filter id="o" filterUnits="objectBoundingBox" height="109.8%" width="101.5%" y="-2.4%" x="-.8%"><feOffset result="shadowOffsetOuter1" in="SourceAlpha" dy="2"/><feColorMatrix result="shadowMatrixOuter1" in="shadowOffsetOuter1" values="0 0 0 0 0 0 0 0 0 0 0 0 0 0 0 0 0 0 0.2 0"/><feMerge><feMergeNode in="shadowMatrixOuter1"/><feMergeNode in="SourceGraphic"/></feMerge></filter></defs><g fill="#252C2F" transform="translate(6 7)" filter="url(#o)" fill-rule="nonzero"><path d="M34 41h-3C17 41 9 33 9 21 9 10 11 0 33 0h2c22 0 24 10 24 21 0 12-10 20-25 20zM32 6c-19 0-19 7-19 16 0 7 3 15 18 15h3c12 0 21-6 21-15S55 6 36 6h-4zM96 41h-3c-14 0-22-8-22-20 0-11 2-21 24-21h2c22 0 24 10 24 21 0 12-10 20-25 20zM94 6c-19 0-19 7-19 16 0 7 3 15 18 15h3c12 0 21-6 21-15s0-16-19-16h-4z"/><path d="M3 6c1-1 8-6 30-6 17 0 21 2 27 5l5 1 5-1c6-3 13-5 28-5 21 0 28 5 29 6 2 0 3 1 3 3v3c0 1-1 2-3 2 0 0-7 0-7 3s-2-4-2-5V9c-3-2-10-4-20-4-12 0-18 2-23 4v2l-2 5-3-1h-8-2l-2 2-3-6V9c-4-2-8-4-22-4-11 0-18 2-21 4v3c0 1-3 8-3 5s-6-3-6-3c-2 0-3-1-3-2V9c0-2 1-3 3-3z"/></g></g></g></g></g></g></svg>
